{"glyphs":{":":{"x_min":0,"x_max":311,"ha":311,"o":"m 18 58 q 18 122 46 152 q 74 181 135 181 q 219 181 219 107 q 219 44 190 15 q 162 -14 101 -14 q 18 -14 18 58 z m 73 373 q 73 437 102 466 q 130 496 181 496 q 232 496 253 478 q 274 461 274 422 q 274 359 246 330 q 217 301 156 301 q 73 301 73 373 z"},"$":{"x_min":0,"x_max":630,"ha":630,"o":"m 201 204 q 201 136 300 136 q 400 136 400 198 q 400 231 366 252 q 332 273 284 287 q 235 301 186 320 q 137 338 103 378 q 69 417 69 476 q 69 581 132 646 q 196 710 329 724 l 350 845 l 500 845 l 478 720 q 554 706 593 664 q 632 621 632 558 q 632 529 624 503 q 616 477 608 466 l 600 454 l 423 454 q 445 477 445 512 q 445 577 360 577 q 311 577 282 560 q 254 543 254 509 q 254 475 288 455 q 322 435 370 424 q 419 412 468 395 q 517 378 551 338 q 585 299 585 236 q 585 130 528 68 q 472 7 350 -9 l 326 -144 l 176 -144 l 199 -11 q 89 0 46 56 q 16 94 16 157 q 16 185 22 219 l 25 235 l 205 235 l 203 223 q 201 213 201 204 z"},"?":{"x_min":0,"x_max":592,"ha":592,"o":"m 246 494 q 246 471 253 452 l 76 452 q 70 476 70 514 q 70 630 151 698 q 232 765 383 765 q 502 765 560 720 q 617 676 617 598 q 617 543 590 496 q 564 449 525 418 q 486 387 447 361 q 408 335 378 310 q 348 285 344 262 l 332 197 l 164 197 l 175 262 q 184 311 212 346 q 240 380 274 398 q 307 417 340 435 q 416 477 416 556 q 416 610 346 610 q 298 610 272 578 q 246 547 246 494 z m 119 33 q 119 97 148 126 q 176 156 236 156 q 320 156 320 82 q 320 19 292 -10 q 263 -39 202 -39 q 119 -39 119 33 z"},"<":{"x_min":0,"x_max":422,"ha":422,"o":"m 321 7 l 11 216 l 29 319 l 413 529 l 389 389 l 168 267 l 346 147 z"},"'":{"x_min":0,"x_max":205,"ha":205,"o":"m 204 584 l 102 584 l 139 820 l 252 820 z"},"=":{"x_min":0,"x_max":489,"ha":489,"o":"m 432 306 l 61 306 l 82 424 l 453 424 z m 395 95 l 24 95 l 45 213 l 416 213 z"},"a":{"x_min":0,"x_max":602,"ha":602,"o":"m 491 154 q 491 128 518 128 q 544 128 562 138 l 557 25 q 509 -14 449 -14 q 339 -14 327 66 q 277 -14 180 -14 q 16 -14 16 127 q 16 151 21 180 l 42 297 q 58 387 116 440 q 173 494 266 494 q 358 494 391 451 l 396 481 l 548 481 l 492 166 q 491 160 491 154 z m 195 202 q 193 193 193 177 q 193 161 208 146 q 223 130 258 130 q 294 130 320 158 l 350 326 q 339 351 298 351 q 221 351 208 277 z"},"L":{"x_min":0,"x_max":536,"ha":536,"o":"m 475 0 l 19 0 l 146 720 l 326 720 l 227 156 l 503 156 z"},"3":{"x_min":0,"x_max":635,"ha":635,"o":"m 259 474 q 259 459 264 444 l 87 444 q 82 462 82 491 q 82 600 161 664 q 240 727 388 727 q 506 727 567 678 q 628 628 628 541 q 628 470 581 407 q 534 344 473 344 l 473 341 q 520 341 548 308 q 576 275 576 222 q 576 -14 262 -14 q 131 -14 69 46 q 23 90 23 168 q 23 196 29 228 l 209 228 q 207 217 207 207 q 207 141 293 141 q 338 141 368 167 q 398 193 398 231 q 398 289 322 289 l 221 289 l 241 398 l 321 398 q 373 399 408 430 q 444 462 444 499 q 444 536 422 554 q 399 572 355 572 q 311 572 285 546 q 259 519 259 474 z"},";":{"x_min":0,"x_max":319,"ha":319,"o":"m 74 373 q 74 437 102 466 q 131 496 191 496 q 275 496 275 422 q 275 359 246 330 q 217 301 157 301 q 74 301 74 373 z m 18 58 q 18 122 46 152 q 75 181 136 181 q 226 181 226 92 q 226 -202 -52 -202 l -39 -130 q 14 -130 66 -80 q 95 -52 101 -14 q 18 -14 18 58 z"},"J":{"x_min":0,"x_max":632,"ha":632,"o":"m 240 -14 q -1 -14 -1 161 q -1 188 5 219 l 18 293 l 198 293 l 192 260 q 188 235 188 209 q 188 183 201 166 q 221 141 267 141 q 313 141 342 166 q 370 191 382 258 l 464 721 l 643 721 l 559 244 q 536 111 459 48 q 382 -14 240 -14 z"},"V":{"x_min":0,"x_max":648,"ha":648,"o":"m 315 175 l 505 720 l 700 720 l 427 0 l 107 0 l 99 720 l 295 720 l 292 175 z"},"\"":{"x_min":0,"x_max":393,"ha":393,"o":"m 204 584 l 102 584 l 139 820 l 252 820 z m 392 584 l 290 584 l 327 820 l 440 820 z"},"7":{"x_min":0,"x_max":570,"ha":570,"o":"m 243 0 l 63 0 q 79 88 116 170 q 152 252 194 310 q 236 368 276 416 q 317 463 346 502 q 375 540 379 564 l 72 564 l 100 720 l 623 720 l 610 646 q 591 535 478 407 q 432 354 385 298 q 338 241 298 164 q 258 87 243 0 z"},"S":{"x_min":0,"x_max":648,"ha":648,"o":"m 210 205 q 210 136 310 136 q 409 136 409 198 q 409 231 375 252 q 341 273 292 287 q 244 301 196 320 q 147 338 113 378 q 79 417 79 476 q 79 727 402 727 q 520 727 580 682 q 641 638 641 559 q 641 530 634 504 q 626 477 618 466 l 610 454 l 433 454 q 455 477 455 512 q 455 577 370 577 q 263 577 263 509 q 263 475 297 455 q 331 435 380 424 q 428 412 477 395 q 526 378 560 338 q 594 299 594 236 q 594 109 518 48 q 442 -14 284 -14 q 126 -14 68 42 q 25 84 25 158 q 25 186 31 219 l 34 235 l 214 235 l 212 223 q 210 213 210 205 z"},"}":{"x_min":0,"x_max":387,"ha":387,"o":"m 140 305 q 140 319 143 336 l 171 493 q 174 511 174 527 q 174 605 89 605 l 116 758 q 221 758 286 712 q 341 672 341 585 q 341 559 335 528 l 308 376 q 306 367 306 352 q 306 338 320 324 q 335 309 361 309 l 371 309 l 347 173 l 337 173 q 311 173 289 156 q 267 139 261 106 l 234 -48 q 222 -113 192 -160 q 162 -207 120 -232 q 39 -278 -67 -278 l -40 -125 q 62 -125 82 -13 l 110 146 q 115 174 130 198 q 144 221 156 231 q 168 241 173 242 q 140 257 140 305 z"},"Z":{"x_min":0,"x_max":618,"ha":618,"o":"m 520 0 l -7 0 l 21 156 l 22 156 l 409 564 l 92 564 l 120 720 l 648 720 l 620 564 l 233 156 l 548 156 z"},"x":{"x_min":0,"x_max":584,"ha":584,"o":"m 522 0 l 336 0 l 265 139 l 145 0 l -41 0 l 175 246 l 45 488 l 234 488 l 302 351 l 419 488 l 608 488 l 391 245 z"},")":{"x_min":0,"x_max":352,"ha":352,"o":"m 126 585 q 109 661 94 691 l 87 704 l 243 766 q 251 751 264 722 q 276 693 296 597 q 317 501 317 388 q 317 275 290 161 q 264 47 226 -29 q 146 -188 86 -252 l 59 -279 l -75 -217 q -66 -208 -51 -192 q -36 -175 2 -117 q 41 -59 70 6 q 100 71 124 173 q 148 275 148 358 q 148 440 142 494 q 135 549 126 585 z"},"&":{"x_min":0,"x_max":667,"ha":667,"o":"m 264 -14 q 22 -14 22 154 q 22 236 68 288 q 113 341 179 341 l 179 344 q 134 344 108 385 q 82 426 82 479 q 82 588 166 658 q 250 727 400 727 q 516 727 576 684 q 635 640 635 563 q 635 535 628 510 q 620 485 612 474 l 604 464 l 427 464 q 448 485 448 522 q 448 572 371 572 q 323 572 292 546 q 261 521 261 483 q 261 445 285 422 q 309 399 351 398 l 658 398 l 638 289 l 594 289 l 583 228 q 561 106 478 46 q 394 -14 264 -14 z m 210 207 q 210 178 231 160 q 252 141 287 141 q 398 141 413 228 l 424 289 l 310 289 q 210 289 210 207 z"},"_":{"x_min":0,"x_max":664,"ha":664,"o":"m 453 -422 l -41 -422 l -19 -296 l 475 -296 z"},"v":{"x_min":0,"x_max":577,"ha":577,"o":"m 529 481 q 543 439 543 370 q 543 300 526 236 q 509 172 474 114 q 440 57 378 22 q 317 -14 237 -14 q 112 -14 64 37 q 32 71 32 141 q 32 174 40 216 l 87 481 l 257 481 l 210 215 q 207 200 207 188 q 207 131 266 131 q 370 131 370 349 q 370 400 362 462 l 359 481 z"},"O":{"x_min":0,"x_max":664,"ha":664,"o":"m 408 727 q 649 727 649 530 q 649 497 642 459 l 607 259 q 583 120 503 53 q 423 -14 278 -14 q 133 -14 76 53 q 37 99 37 180 q 37 216 45 259 l 80 459 q 127 727 408 727 z m 305 141 q 355 141 385 167 q 415 193 427 263 l 461 455 q 464 475 464 491 q 464 572 382 572 q 279 570 259 455 l 225 263 q 221 238 221 211 q 221 141 305 141 z"},"(":{"x_min":0,"x_max":352,"ha":352,"o":"m 248 738 l 275 766 l 409 704 q 378 673 336 608 q 293 544 264 479 q 234 414 210 312 q 186 209 186 110 q 186 11 201 -68 q 216 -148 232 -182 l 247 -217 l 91 -279 q 83 -264 70 -236 q 58 -207 38 -111 q 17 -15 17 97 q 17 209 44 323 q 70 437 108 514 q 146 591 184 650 q 222 710 248 738 z"},"C":{"x_min":0,"x_max":647,"ha":647,"o":"m 272 -14 q 129 -14 74 48 q 36 92 36 171 q 36 205 43 244 l 84 474 q 129 727 409 727 q 525 727 585 678 q 645 628 645 542 q 645 502 634 462 q 622 423 611 404 l 600 384 l 423 384 q 456 422 456 492 q 456 529 437 550 q 418 572 381 572 q 280 572 261 460 l 226 258 q 221 232 221 207 q 221 141 300 141 q 395 141 414 248 l 594 248 l 589 219 q 549 -14 272 -14 z"},"W":{"x_min":0,"x_max":1000,"ha":1000,"o":"m 672 720 l 655 175 l 678 175 l 852 720 l 1048 720 l 801 0 l 501 0 l 528 461 l 394 0 l 94 0 l 101 720 l 297 720 l 279 175 l 302 175 l 477 720 z"},"A":{"x_min":0,"x_max":641,"ha":641,"o":"m 375 0 l 381 157 l 214 157 l 165 0 l -26 0 l 231 720 l 561 720 l 565 0 z m 334 545 l 255 291 l 386 291 l 397 545 z"},"f":{"x_min":0,"x_max":519,"ha":519,"o":"m 457 -18 q 457 -164 382 -258 q 308 -351 180 -351 q 53 -351 11 -288 q -15 -248 -15 -190 q -15 -133 -5 -76 l 123 648 l 293 648 l 263 481 l 512 481 l 487 340 l 291 340 q 362 283 410 192 q 457 101 457 -18 z m 225 268 l 165 -75 q 159 -110 159 -136 q 159 -208 206 -208 q 237 -208 259 -158 q 281 -108 281 -26 q 281 55 264 138 q 248 221 225 268 z"},"Q":{"x_min":0,"x_max":667,"ha":667,"o":"m 409 727 q 651 727 651 539 q 651 509 645 474 l 604 244 q 584 128 522 66 q 459 3 347 -10 q 358 -46 400 -68 q 443 -89 511 -89 l 506 -231 q 430 -231 372 -214 q 315 -197 284 -172 q 252 -148 232 -115 q 202 -64 200 -8 q 35 17 35 173 q 35 206 42 244 l 83 474 q 128 727 409 727 z m 305 141 q 355 141 385 166 q 415 191 427 258 l 463 460 q 466 479 466 494 q 466 572 382 572 q 279 570 260 460 l 225 258 q 221 234 221 208 q 221 141 305 141 z"},"w":{"x_min":0,"x_max":888,"ha":888,"o":"m 839 481 q 853 439 853 370 q 853 300 836 236 q 819 172 784 114 q 750 57 688 22 q 627 -14 547 -14 q 427 -14 387 53 q 315 -14 226 -14 q 106 -14 61 37 q 31 71 31 138 q 31 173 39 216 l 86 481 l 256 481 l 209 215 q 206 200 206 188 q 206 131 265 131 q 306 131 327 166 q 348 202 363 291 l 397 481 l 567 481 l 520 215 q 517 200 517 188 q 517 131 576 131 q 680 131 680 349 q 680 400 672 462 l 669 481 z"},"-":{"x_min":0,"x_max":412,"ha":412,"o":"m 340 209 l 41 209 l 63 335 l 362 335 z"},"E":{"x_min":0,"x_max":617,"ha":617,"o":"m 521 0 l 19 0 l 146 720 l 648 720 l 620 564 l 298 564 l 275 429 l 541 429 l 513 273 l 247 273 l 227 156 l 549 156 z"},"s":{"x_min":0,"x_max":549,"ha":549,"o":"m 522 377 q 522 344 502 316 l 338 316 q 346 322 346 336 q 346 350 330 358 q 314 367 289 367 q 214 367 214 321 q 214 303 242 295 q 270 287 310 282 q 350 277 390 268 q 430 258 458 230 q 486 202 486 155 q 486 72 420 29 q 353 -14 226 -14 q 99 -14 48 27 q 8 59 8 115 q 8 131 11 148 l 178 150 q 176 136 194 126 q 213 115 249 115 q 285 115 301 122 q 317 130 317 151 q 317 165 289 170 q 261 176 220 180 q 180 184 140 193 q 99 202 71 231 q 43 260 43 307 q 43 398 114 447 q 184 496 317 496 q 522 496 522 377 z"},">":{"x_min":0,"x_max":422,"ha":422,"o":"m 383 216 l -1 7 l 24 147 l 244 267 l 66 389 l 91 529 l 401 319 z"},"l":{"x_min":0,"x_max":319,"ha":319,"o":"m 208 154 q 208 128 234 128 q 261 128 279 138 l 274 25 q 226 -14 166 -14 q 75 -14 48 28 q 31 55 31 87 q 31 119 35 143 l 144 759 l 314 759 l 209 166 q 208 160 208 154 z"},"8":{"x_min":0,"x_max":625,"ha":625,"o":"m 17 158 q 17 207 32 248 q 46 289 62 310 q 79 332 104 350 q 129 368 136 371 q 144 374 155 378 q 134 385 114 416 q 96 446 96 497 q 96 603 176 664 q 255 726 379 726 q 503 726 560 685 q 617 644 617 570 q 617 532 604 500 q 591 468 572 450 q 533 410 504 399 l 491 394 q 571 347 571 240 q 571 108 490 47 q 410 -14 254 -14 q 146 -14 82 28 q 17 71 17 158 z m 199 207 q 199 141 282 141 q 336 141 366 164 q 397 188 397 230 q 397 272 349 284 l 283 299 q 280 298 274 296 q 268 295 254 288 q 239 281 228 272 q 199 246 199 207 z m 282 472 q 292 452 305 449 l 363 435 q 369 435 380 441 q 392 447 400 454 q 407 462 413 479 q 419 496 419 518 q 419 540 404 556 q 388 572 354 572 q 321 572 298 550 q 275 529 275 506 q 275 484 282 472 z"},"\\":{"x_min":0,"x_max":564,"ha":564,"o":"m 441 -277 l 232 -277 l 103 760 l 311 760 z"},"e":{"x_min":0,"x_max":552,"ha":552,"o":"m 224 -14 q 16 -14 16 130 q 16 150 20 173 l 41 297 q 58 393 130 444 q 201 496 319 496 q 520 496 520 344 q 520 322 516 296 l 504 225 l 199 225 l 195 202 q 193 190 193 180 q 193 125 258 125 q 282 125 299 140 q 316 155 319 175 l 485 173 q 452 -14 224 -14 z m 344 286 q 348 303 348 318 q 348 332 335 347 q 322 362 294 362 q 265 362 242 343 q 218 324 209 286 z"},"b":{"x_min":0,"x_max":570,"ha":570,"o":"m 365 495 q 464 495 504 440 q 534 401 534 345 q 534 322 529 297 l 509 185 q 492 89 420 38 q 349 -14 240 -14 q 132 -14 74 29 q 28 63 28 124 q 28 140 31 157 l 137 759 l 307 759 l 256 468 q 298 495 365 495 z m 356 282 q 357 290 357 304 q 357 319 344 336 q 332 352 290 352 q 249 352 231 327 l 202 160 q 214 130 252 130 q 329 130 343 207 z"},"%":{"x_min":0,"x_max":835,"ha":835,"o":"m 256 727 q 383 727 383 618 q 383 600 379 578 l 367 508 q 340 356 190 356 q 62 356 62 465 q 62 485 66 508 l 78 578 q 103 727 256 727 z m 168 482 q 168 444 206 444 q 228 444 242 458 q 255 472 262 510 l 274 576 q 276 588 276 598 q 276 639 240 639 q 194 639 183 576 l 171 510 q 168 494 168 482 z m 101 0 l 622 727 l 762 727 l 241 0 z m 668 355 q 796 355 796 248 q 796 229 792 206 l 779 136 q 765 59 722 22 q 680 -16 603 -16 q 474 -16 474 93 q 474 112 478 136 l 491 206 q 518 355 668 355 z m 582 111 q 582 72 618 72 q 640 72 654 86 q 669 100 675 138 l 686 204 q 688 216 688 226 q 688 267 652 267 q 606 267 595 204 l 584 138 q 582 123 582 111 z"},"m":{"x_min":0,"x_max":928,"ha":928,"o":"m 850 128 q 873 128 891 138 l 886 25 q 839 -14 779 -14 q 643 -14 643 100 q 643 120 647 143 l 668 266 q 671 284 671 302 q 671 350 618 350 q 566 350 536 309 l 482 0 l 312 0 l 359 266 q 362 284 362 302 q 362 350 308 350 q 265 350 234 317 l 178 0 l 8 0 l 93 481 l 251 481 l 240 421 q 300 495 392 495 q 522 495 540 409 q 600 495 700 495 q 801 495 831 450 q 851 419 851 382 q 851 345 846 315 l 821 166 q 820 160 820 155 q 820 128 850 128 z"},"#":{"x_min":0,"x_max":646,"ha":646,"o":"m 507 107 l 429 107 l 407 49 l 287 49 l 309 107 l 207 107 l 185 49 l 65 49 l 87 107 l -1 107 l 36 197 l 123 197 l 171 321 l 94 321 l 131 411 l 206 411 l 238 492 l 357 492 l 326 411 l 428 411 l 460 492 l 579 492 l 548 411 l 639 411 l 602 321 l 513 321 l 464 197 l 544 197 z m 345 197 l 393 321 l 291 321 l 242 197 z"},",":{"x_min":0,"x_max":295,"ha":295,"o":"m 5 58 q 5 122 34 152 q 62 181 123 181 q 213 181 213 92 q 213 -202 -65 -202 l -52 -130 q 1 -130 53 -80 q 82 -52 88 -14 q 5 -14 5 58 z"},"n":{"x_min":0,"x_max":598,"ha":598,"o":"m 344 307 q 344 350 302 350 q 261 350 234 319 l 178 0 l 8 0 l 93 481 l 251 481 l 240 422 q 299 495 389 495 q 479 495 506 451 q 523 423 523 387 q 523 351 518 320 l 491 166 q 490 160 490 155 q 490 128 520 128 q 543 128 561 138 l 556 25 q 509 -14 449 -14 q 313 -14 313 100 q 313 120 317 143 l 341 276 q 344 294 344 307 z"},"h":{"x_min":0,"x_max":619,"ha":619,"o":"m 541 128 q 564 128 582 138 l 577 25 q 530 -14 470 -14 q 334 -14 334 100 q 334 120 338 143 l 360 266 q 363 284 363 302 q 363 350 312 350 q 262 350 234 316 l 178 0 l 8 0 l 142 759 l 312 759 l 255 436 q 310 495 393 495 q 494 495 524 450 q 545 420 545 383 q 545 346 539 315 l 512 166 q 511 160 511 155 q 511 128 541 128 z"},"z":{"x_min":0,"x_max":541,"ha":541,"o":"m 443 0 l -6 0 l 19 140 l 301 341 l 54 341 l 79 481 l 528 481 l 503 341 l 230 140 l 468 140 z"},"B":{"x_min":0,"x_max":657,"ha":657,"o":"m 436 720 q 550 720 598 670 q 634 632 634 574 q 634 554 630 532 l 621 484 q 610 427 578 395 q 547 363 523 363 l 522 355 q 550 355 579 324 q 608 293 608 251 q 608 234 604 215 l 598 184 q 582 98 522 49 q 461 0 353 0 l 19 0 l 146 720 z m 346 294 l 251 294 l 227 156 l 322 156 q 324 156 326 156 q 372 156 399 178 q 426 199 426 230 q 426 294 346 294 z m 373 564 l 298 564 l 272 415 l 346 415 q 442 415 442 499 q 442 528 424 546 q 407 564 373 564 z"},"K":{"x_min":0,"x_max":656,"ha":656,"o":"m 717 720 l 488 357 l 590 0 l 400 0 l 325 264 l 246 264 l 199 0 l 19 0 l 146 720 l 326 720 l 273 420 l 337 420 l 527 720 z"},"R":{"x_min":0,"x_max":656,"ha":656,"o":"m 436 720 q 550 720 598 670 q 634 632 634 574 q 634 554 630 532 l 616 454 q 604 389 574 349 q 545 309 509 292 l 600 0 l 398 0 l 314 269 l 252 269 l 211 0 l 19 0 l 146 720 z m 373 564 l 298 564 l 272 390 l 342 390 q 395 390 418 416 q 441 441 441 483 q 441 564 373 564 z"},"T":{"x_min":0,"x_max":696,"ha":696,"o":"m 732 564 l 486 564 l 387 0 l 206 0 l 305 564 l 58 564 l 86 720 l 760 720 z"},"P":{"x_min":0,"x_max":638,"ha":638,"o":"m 357 219 l 238 219 l 199 0 l 19 0 l 146 720 l 451 720 q 564 720 612 668 q 647 628 647 566 q 647 545 643 522 l 623 409 q 608 326 535 272 q 462 219 357 219 z m 388 564 l 298 564 l 265 375 l 354 375 q 436 375 449 448 l 456 489 q 458 498 458 513 q 458 528 443 546 q 428 564 388 564 z"},"|":{"x_min":0,"x_max":280,"ha":280,"o":"m 114 -278 l -36 -278 l 147 759 l 297 759 z"},"t":{"x_min":0,"x_max":549,"ha":549,"o":"m 236 -14 q 120 -14 69 38 q 31 76 31 140 q 31 161 35 185 l 103 572 l 286 648 l 257 481 l 533 481 l 508 340 l 232 340 l 212 227 q 208 208 208 193 q 208 130 268 130 q 300 130 322 157 q 343 184 351 229 l 517 229 q 475 -14 236 -14 z"},"M":{"x_min":0,"x_max":856,"ha":856,"o":"m 334 720 l 441 375 l 671 720 l 860 720 l 733 0 l 552 0 l 624 406 l 470 164 l 339 164 l 271 406 l 199 0 l 19 0 l 146 720 z"},"g":{"x_min":0,"x_max":557,"ha":557,"o":"m -8 -157 q -8 -69 104 -4 q 19 23 19 125 q 19 150 24 180 l 44 297 q 60 387 118 440 q 176 494 268 494 q 361 494 395 449 l 401 481 l 550 481 l 462 -16 q 440 -143 362 -217 q 283 -291 182 -291 q 81 -291 36 -254 q -8 -217 -8 -157 z m 198 202 q 196 193 196 177 q 196 161 211 146 q 226 130 262 130 q 297 130 323 158 l 353 326 q 339 351 300 351 q 261 351 239 331 q 217 311 211 277 z m 205 -148 q 270 -148 290 -30 l 300 28 q 161 -37 161 -103 q 161 -123 172 -136 q 184 -148 205 -148 z"},"j":{"x_min":0,"x_max":270,"ha":270,"o":"m -33 -287 q -60 -287 -84 -278 q -107 -268 -117 -258 l -127 -248 l -92 -135 q -80 -145 -54 -145 q -19 -145 -12 -107 l 92 481 l 262 481 l 154 -130 q 141 -202 98 -244 q 56 -287 -33 -287 z m 110 644 q 110 708 138 738 q 167 767 227 767 q 311 767 311 693 q 311 630 282 601 q 253 572 193 572 q 110 572 110 644 z"},"i":{"x_min":0,"x_max":313,"ha":313,"o":"m 233 128 q 256 128 274 138 l 269 25 q 222 -14 162 -14 q 71 -14 44 28 q 26 56 26 88 q 26 119 30 143 l 90 481 l 260 481 l 204 166 q 203 160 203 155 q 203 128 233 128 z m 110 644 q 110 708 138 738 q 167 767 227 767 q 311 767 311 693 q 311 630 282 601 q 254 572 193 572 q 110 572 110 644 z"},"y":{"x_min":0,"x_max":570,"ha":570,"o":"m 213 215 q 210 197 210 179 q 210 131 264 131 q 308 131 337 162 l 393 481 l 563 481 l 475 -16 q 453 -143 374 -217 q 296 -291 195 -291 q 94 -291 50 -254 q 5 -217 5 -157 q 5 -72 110 -6 q 53 8 38 51 q 29 75 29 105 q 29 135 34 166 l 90 481 l 260 481 z m 218 -148 q 283 -148 303 -30 l 313 28 q 174 -37 174 -103 q 174 -123 186 -136 q 197 -148 218 -148 z"},"@":{"x_min":0,"x_max":982,"ha":982,"o":"m 326 592 q 267 558 252 479 l 202 197 q 200 184 200 164 q 200 145 214 118 q 228 91 257 74 q 286 57 328 46 q 393 30 472 30 q 551 30 623 42 q 695 54 727 66 l 759 79 l 785 -66 q 719 -87 612 -106 q 506 -125 437 -125 q 197 -125 98 -40 q 22 25 22 140 q 22 175 29 214 l 76 479 q 101 620 230 707 q 360 794 600 794 q 715 794 798 770 q 880 746 923 702 q 991 634 991 539 q 991 514 986 487 l 970 392 q 947 259 857 190 q 767 121 644 121 q 552 121 540 190 q 526 165 494 143 q 462 121 412 121 q 333 121 300 164 q 276 193 276 242 q 276 262 280 286 l 297 385 q 311 462 360 508 q 410 553 488 553 q 567 553 594 516 l 599 542 l 746 542 l 706 313 q 704 303 704 296 q 704 269 727 269 q 774 269 790 350 l 817 489 q 820 505 820 524 q 820 543 809 568 q 798 593 776 608 q 755 622 714 630 q 662 639 627 639 q 591 639 562 639 q 534 639 512 638 q 491 637 451 634 q 411 630 384 620 q 356 609 326 592 z m 480 262 q 519 262 539 289 l 557 391 q 550 413 506 413 q 488 413 475 401 q 462 389 458 369 l 446 304 q 445 299 445 290 q 445 281 454 272 q 463 262 480 262 z"},".":{"x_min":0,"x_max":284,"ha":284,"o":"m 5 58 q 5 122 33 152 q 61 181 122 181 q 206 181 206 107 q 206 44 178 15 q 149 -14 88 -14 q 5 -14 5 58 z"},"p":{"x_min":0,"x_max":576,"ha":576,"o":"m 369 494 q 471 494 510 440 q 538 403 538 346 q 538 323 533 297 l 513 180 q 496 85 440 36 q 384 -14 300 -14 q 216 -14 183 31 l 129 -278 l -41 -278 l 93 481 l 247 481 l 242 454 q 289 494 369 494 z m 265 130 q 293 130 317 148 q 341 166 347 202 l 360 277 q 362 287 362 302 q 362 317 349 334 q 336 351 304 351 q 252 351 236 326 l 206 158 q 220 130 265 130 z"},"X":{"x_min":0,"x_max":688,"ha":688,"o":"m 756 720 l 474 357 l 629 0 l 424 0 l 326 230 l 161 0 l -44 0 l 221 357 l 83 720 l 288 720 l 371 486 l 551 720 z"},"*":{"x_min":0,"x_max":438,"ha":438,"o":"m 360 506 l 281 474 l 261 601 l 169 494 l 111 542 l 226 644 l 91 652 l 113 734 l 241 700 l 205 823 l 285 856 l 302 722 l 398 836 l 455 788 l 343 686 l 475 677 l 452 596 l 323 627 z"},"Y":{"x_min":0,"x_max":644,"ha":644,"o":"m 367 467 l 536 720 l 716 720 l 408 277 l 359 0 l 178 0 l 227 277 l 75 720 l 266 720 l 344 467 z"},"c":{"x_min":0,"x_max":550,"ha":550,"o":"m 224 -14 q 16 -14 16 130 q 16 150 20 173 l 41 297 q 57 393 128 444 q 200 495 310 496 q 523 496 523 348 q 523 316 516 290 q 508 265 500 256 l 492 246 l 322 246 q 347 268 347 298 q 347 352 293 352 q 261 352 238 333 q 215 314 208 275 l 195 202 q 193 192 193 183 q 193 130 259 130 q 281 130 298 144 q 316 158 319 175 l 485 173 q 452 -14 224 -14 z"},"!":{"x_min":0,"x_max":294,"ha":294,"o":"m 205 262 l 72 262 l 144 791 l 314 791 z m 11 58 q 11 122 39 152 q 67 181 128 181 q 212 181 212 107 q 212 44 184 15 q 155 -14 94 -14 q 11 -14 11 58 z"},"/":{"x_min":0,"x_max":568,"ha":568,"o":"m 132 -277 l -77 -277 l 419 760 l 627 760 z"},"[":{"x_min":0,"x_max":431,"ha":431,"o":"m 297 -278 l -36 -278 l 147 759 l 480 759 l 452 603 l 288 603 l 161 -122 l 325 -122 z"},"6":{"x_min":0,"x_max":646,"ha":646,"o":"m 419 422 q 506 422 550 376 q 593 331 593 257 q 593 129 515 58 q 437 -14 283 -14 q 129 -14 74 48 q 36 92 36 171 q 36 205 43 244 l 84 474 q 129 727 404 727 q 521 727 581 686 q 641 644 641 570 q 641 541 632 514 q 624 488 615 476 l 606 464 l 429 464 q 453 489 453 526 q 453 572 376 572 q 281 572 261 460 l 254 422 z m 334 287 l 231 287 l 226 258 q 222 233 222 208 q 222 141 300 141 q 409 141 409 225 q 409 287 334 287 z"},"r":{"x_min":0,"x_max":514,"ha":514,"o":"m 507 379 q 507 345 496 313 q 484 281 473 266 l 462 252 l 311 252 q 336 275 336 309 q 336 327 324 338 q 313 350 293 350 q 259 350 234 316 l 178 0 l 8 0 l 93 481 l 251 481 l 239 414 q 296 495 377 495 q 442 495 474 464 q 507 433 507 379 z"},"2":{"x_min":0,"x_max":636,"ha":636,"o":"m 249 442 q 249 413 256 399 l 79 399 q 73 423 73 461 q 73 582 154 654 q 236 727 388 727 q 631 727 631 531 q 631 461 597 400 q 563 340 514 302 q 465 263 416 234 q 367 206 331 186 q 295 167 292 157 l 292 156 l 559 156 l 531 0 l 8 0 l 21 74 q 32 137 69 186 q 106 236 153 264 q 200 292 252 320 q 305 347 348 368 q 391 390 420 424 q 448 458 448 500 q 448 572 367 572 q 311 572 280 536 q 249 501 249 442 z"},"{":{"x_min":0,"x_max":387,"ha":387,"o":"m 81 -232 q 26 -192 26 -107 q 26 -79 32 -48 l 59 106 q 61 115 61 130 q 61 144 46 158 q 32 173 7 173 l -3 173 l 21 309 l 31 309 q 57 309 79 326 q 101 343 107 376 l 134 528 q 158 660 248 712 q 330 758 434 758 l 407 605 q 306 605 286 493 l 258 336 q 245 259 194 242 q 200 240 208 230 q 226 208 226 170 q 226 158 224 146 l 196 -13 q 193 -31 193 -47 q 193 -125 278 -125 l 251 -278 q 146 -278 81 -232 z"},"9":{"x_min":0,"x_max":646,"ha":646,"o":"m 248 291 q 162 291 118 336 q 75 382 75 456 q 75 584 153 656 q 231 727 385 727 q 539 727 594 664 q 632 621 632 542 q 632 508 625 469 l 584 239 q 539 -14 264 -14 q 147 -14 87 28 q 27 69 27 143 q 27 170 34 196 q 42 223 50 236 l 57 249 l 234 249 q 216 224 216 195 q 216 141 292 141 q 387 141 407 253 l 414 291 z m 334 426 l 437 426 l 442 455 q 446 480 446 505 q 446 572 368 572 q 259 572 259 488 q 259 426 334 426 z"}," ":{"x_min":0,"x_max":240,"ha":240,"o":""},"I":{"x_min":0,"x_max":322,"ha":322,"o":"m 326 720 l 200 0 l 19 0 l 146 720 z"},"H":{"x_min":0,"x_max":697,"ha":697,"o":"m 701 720 l 575 0 l 394 0 l 440 260 l 245 260 l 200 0 l 19 0 l 146 720 l 326 720 l 272 416 l 467 416 l 521 720 z"},"4":{"x_min":0,"x_max":622,"ha":622,"o":"m 447 0 l 269 0 l 291 127 l 7 127 l 48 358 l 331 700 l 521 700 l 232 329 l 222 271 l 329 271 l 354 408 l 519 408 l 494 271 l 593 271 l 568 127 l 469 127 z"},"~":{"x_min":0,"x_max":527,"ha":527,"o":"m 166 253 q 107 253 56 234 l 39 227 l 59 338 q 63 344 72 353 q 80 362 112 377 q 145 392 186 392 q 227 392 288 369 q 348 346 384 346 q 419 346 444 354 q 470 361 480 368 l 489 376 l 469 256 q 447 238 410 224 q 373 210 340 210 q 308 210 254 232 q 201 253 166 253 z"},"D":{"x_min":0,"x_max":669,"ha":669,"o":"m 426 720 q 557 720 613 654 q 654 604 654 529 q 654 502 649 472 l 610 249 q 590 136 512 68 q 434 0 310 0 l 19 0 l 146 720 z m 363 564 l 298 564 l 227 156 l 322 156 q 369 156 396 182 q 422 207 432 265 l 461 429 q 465 451 465 469 q 465 564 363 564 z"},"^":{"x_min":0,"x_max":523,"ha":523,"o":"m 293 568 l 150 568 l 313 807 l 494 807 l 573 568 l 430 568 l 382 686 z"},"0":{"x_min":0,"x_max":661,"ha":661,"o":"m 407 727 q 643 727 643 515 q 643 476 635 429 l 611 289 q 585 136 504 61 q 422 -14 278 -14 q 133 -14 78 60 q 41 111 41 198 q 41 240 49 289 l 73 429 q 125 727 407 727 z m 223 229 q 223 141 304 141 q 354 141 386 174 q 417 207 432 293 l 455 425 q 461 458 461 482 q 461 572 381 572 q 279 570 253 425 l 229 293 q 223 256 223 229 z"},"F":{"x_min":0,"x_max":602,"ha":602,"o":"m 512 264 l 246 264 l 200 0 l 19 0 l 146 720 l 648 720 l 620 564 l 298 564 l 273 420 l 539 420 z"},"`":{"x_min":0,"x_max":402,"ha":402,"o":"m 452 568 l 304 568 l 192 807 l 372 807 z"},"k":{"x_min":0,"x_max":602,"ha":602,"o":"m 501 128 q 524 128 542 138 l 537 25 q 490 -14 422 -14 q 354 -14 322 22 q 289 58 271 143 l 268 157 q 247 154 205 152 l 178 0 l 8 0 l 142 759 l 312 759 l 254 430 q 313 495 414 495 q 482 495 514 462 q 547 428 547 372 q 547 264 434 203 l 445 166 q 456 128 501 128 z m 328 359 q 274 359 232 308 l 221 242 q 369 248 369 321 q 369 338 358 348 q 348 359 328 359 z"},"u":{"x_min":0,"x_max":615,"ha":615,"o":"m 504 154 q 504 128 530 128 q 557 128 575 138 l 570 25 q 522 -14 462 -14 q 349 -14 339 73 q 279 -14 178 -14 q 76 -14 46 32 q 26 61 26 98 q 26 135 32 166 l 88 481 l 258 481 l 211 215 q 208 197 208 179 q 208 131 262 131 q 307 131 334 162 l 391 481 l 561 481 l 505 166 q 504 160 504 154 z"},"]":{"x_min":0,"x_max":431,"ha":431,"o":"m 265 -278 l -68 -278 l -40 -122 l 124 -122 l 251 603 l 87 603 l 115 759 l 448 759 z"},"U":{"x_min":0,"x_max":691,"ha":691,"o":"m 90 53 q 50 99 50 180 q 50 216 58 259 l 139 720 l 319 720 l 238 263 q 234 238 234 211 q 234 141 318 141 q 368 141 398 167 q 428 193 440 263 l 521 720 l 701 720 l 620 259 q 595 119 516 52 q 436 -14 291 -14 q 146 -14 90 53 z"},"o":{"x_min":0,"x_max":564,"ha":564,"o":"m 321 495 q 429 495 484 448 q 527 411 527 345 q 527 323 522 297 l 501 180 q 482 74 412 30 q 343 -14 227 -14 q 111 -14 57 30 q 17 63 17 129 q 17 152 22 180 l 43 297 q 78 495 321 495 z m 348 277 q 350 287 350 302 q 350 318 337 337 q 324 356 292 356 q 259 356 237 334 q 215 313 209 277 l 196 202 q 194 192 194 176 q 194 161 207 143 q 220 125 252 125 q 285 125 307 148 q 329 170 335 202 z"},"N":{"x_min":0,"x_max":697,"ha":697,"o":"m 701 720 l 575 0 l 394 0 l 268 394 l 200 0 l 19 0 l 146 720 l 332 720 l 456 352 l 521 720 z"},"+":{"x_min":0,"x_max":446,"ha":446,"o":"m 122 62 l 145 191 l 19 191 l 40 309 l 166 309 l 188 433 l 306 433 l 284 309 l 411 309 l 390 191 l 263 191 l 240 62 z"},"G":{"x_min":0,"x_max":649,"ha":649,"o":"m 270 -14 q 128 -14 74 52 q 37 98 37 178 q 37 215 45 259 l 80 459 q 127 727 408 727 q 524 727 584 678 q 644 628 644 542 q 644 507 634 471 q 625 435 616 417 l 606 399 l 429 399 q 455 435 455 482 q 455 572 380 572 q 279 572 259 455 l 225 263 q 220 236 220 210 q 220 141 302 141 q 383 141 406 223 l 324 223 l 344 334 l 609 334 l 593 248 l 588 219 q 546 -14 270 -14 z"},"q":{"x_min":0,"x_max":555,"ha":555,"o":"m 175 -14 q 82 -14 43 36 q 16 71 16 127 q 16 151 21 180 l 42 297 q 58 387 116 440 q 173 494 266 494 q 358 494 391 451 l 396 481 l 547 481 l 413 -278 l 243 -278 l 298 31 q 247 -14 175 -14 z m 195 202 q 193 193 193 177 q 193 161 208 146 q 223 130 258 130 q 294 130 320 158 l 350 326 q 339 351 298 351 q 221 351 208 277 z"},"d":{"x_min":0,"x_max":621,"ha":621,"o":"m 491 154 q 491 128 518 128 q 544 128 562 138 l 557 25 q 509 -14 449 -14 q 339 -14 327 66 q 277 -14 180 -14 q 16 -14 16 127 q 16 151 21 180 l 42 297 q 58 387 116 440 q 173 494 275 494 q 338 494 375 467 l 426 759 l 597 759 l 492 166 q 491 160 491 154 z m 195 202 q 193 193 193 177 q 193 161 208 146 q 223 130 258 130 q 294 130 320 158 l 350 326 q 339 351 298 351 q 221 351 208 277 z"},"1":{"x_min":0,"x_max":506,"ha":506,"o":"m 384 0 l 203 0 l 288 480 q 264 441 200 405 q 136 369 66 369 l 53 537 q 147 537 229 594 q 311 652 330 720 l 510 720 z"},"5":{"x_min":0,"x_max":634,"ha":634,"o":"m 214 199 q 214 173 234 157 q 255 141 301 141 q 347 141 378 170 q 410 200 410 244 q 410 288 388 314 q 365 339 332 339 q 273 339 241 313 l 230 304 l 59 304 l 132 720 l 621 720 l 593 563 l 274 563 l 257 464 q 301 487 390 487 q 478 487 536 432 q 593 377 593 283 q 593 151 513 68 q 433 -14 281 -14 q 129 -14 72 42 q 30 83 30 157 q 30 183 35 213 l 215 213 q 214 206 214 199 z"}}}
